<svg height='100px' width='100px'  fill="#aed470" xmlns="http://www.w3.org/2000/svg" xmlns:xlink="http://www.w3.org/1999/xlink" version="1.1" x="0px" y="0px" viewBox="0 0 100 100" enable-background="new 0 0 100 100" xml:space="preserve"><path d="M82.585,58.622c-1.479-1.576-4.162-2.765-5.993-3.829c-3.38-1.966-9.138-2.722-8.562-7.785  c0.104-0.887,0.229-1.778,0.335-2.667c0.171-1.454-0.28-3.097-1.041-4.374c-0.936-1.573-3.479-1.856-5.089-2.334  c-0.967-0.292-2.03-0.51-2.928-0.94c-0.799-0.382-6.952-1.828-5.724-12.25c0.058-0.483,1.159-4.525-2.003-4.954  c-0.296-0.041-4.698,0.023-7.582-2.114c-2.319-1.722-3.328-4.722-3.889-7.959c-0.099-0.565-0.621-0.961-0.754,0.14  c-0.226,1.848-0.188,4.674,1.037,6.647c3.783,6.136,9.413,5.587,9.406,6.534c-0.027,1.676-0.651,3.312-0.304,7.129  c0.219,2.371,0.778,3.915,1.532,5.036c-0.68-0.157-1.364-0.309-2.037-0.488c-1.624-0.445-3.121-0.752-4.536-1.57  c-4.872-2.819-2.809-4.493-3.993-9.432c-0.042-0.188-1.092-7.085-10.528-9.679c-3.819-1.05-9.331-1.239-12.583-8.287  c-0.215-0.468-0.742-0.807-0.713,0.263c0.083,2.988,1.362,8.906,9.935,10.792c7.235,1.594,8.645,4.768,9.45,6.251  c0.993,1.826,0.904,3.696,1.15,5.609c0.167,1.307,0.584,2.636,1.222,4c1.805,3.901,5.616,5.298,6.679,5.617  c1.324,0.403,2.653,0.667,4.003,0.992c2.02,0.486,5.337,1.118,6.93,2.449c1.836,1.534,2.939,3.066,2.433,5.541  c-0.087,0.432,0.006,0.843-0.375,1.167c-0.375,0.322-0.95,0.293-1.391,0.166c-1.079-0.304-1.721-1.338-2.215-2.27  c-0.775-1.456-2.553-2.319-3.787-3.451c-1.288-1.181-2.798-1.384-4.467-1.56c-0.78-0.082-1.711-0.38-2.49-0.184  c-0.897,0.22-1.014,1.409-1.216,2.155c-0.408,1.512,0.385,4.061,1.155,5.303c1.304,2.109,4.734,2.406,6.798,2.978  c2.496,0.694,0.034,3.714-0.596,5.116c-1.009,2.246-2.906,3.809-4.551,5.566c-1.341,1.432-2.539,3.06-4.302,4.007  c-2.839,1.525-5.763,1.222-8.756,0.696c-3.692-0.642-8.744-2.511-12.668-2.401c-0.988-0.035-0.978,1.05-0.841,1.522  C22.971,80.405,35.09,91.954,50.65,94.957c2.405,0.381,3.654-1.825,4.665-3.61c1.539-2.728,2.937-5.594,3.43-8.715  c0.372-2.335,0.164-4.701,0.263-7.051c0.1-2.292,0.607-4.507,1.329-6.678c0.497-1.489,1.852-2.88,3.415-3.265  c1.648-0.416,3.354,0.161,5,0.317c2.509,0.236,4.617-1.078,7.058-1.196c1.055-0.053,2.037,0.465,3.091,0.439  c1.049-0.021,1.729-0.637,2.339-1.44c0.519-0.685,1.514-1.431,1.822-2.262C83.549,60.174,83.487,59.588,82.585,58.622z"></path></svg>
